<?xml version="1.0" standalone="no"?>
<!DOCTYPE svg PUBLIC "-//W3C//DTD SVG 20010904//EN"
 "http://www.w3.org/TR/2001/REC-SVG-20010904/DTD/svg10.dtd">
<svg version="1.0" xmlns="http://www.w3.org/2000/svg"
 width="24" height="24" viewBox="0 0 512.000000 512.000000"
 preserveAspectRatio="xMidYMid meet">

<g transform="translate(0.000000,512.000000) scale(0.100000,-0.100000)"
fill="#ffff00" stroke="none">
<path d="M2365 5113 c-330 -28 -635 -112 -930 -257 -516 -254 -917 -655 -1171
-1171 -126 -258 -203 -511 -246 -810 -17 -118 -17 -512 0 -630 42 -295 120
-553 242 -800 137 -280 272 -468 494 -691 218 -217 408 -355 677 -488 544
-271 1162 -336 1759 -186 256 64 561 199 775 342 560 374 952 942 1095 1588
33 150 50 291 57 465 15 426 -73 832 -263 1214 -124 250 -263 447 -458 648
-214 222 -430 379 -711 518 -296 146 -572 225 -900 255 -102 9 -327 11 -420 3z
m535 -188 c784 -118 1456 -607 1800 -1310 117 -239 187 -463 226 -720 25 -167
25 -503 0 -670 -119 -788 -605 -1458 -1311 -1805 -231 -115 -464 -187 -720
-226 -167 -25 -503 -25 -670 0 -788 119 -1458 605 -1805 1310 -116 236 -187
463 -226 721 -25 167 -25 503 0 670 166 1099 1035 1930 2141 2044 123 13 437
5 565 -14z"/>
<path d="M2350 4768 c-398 -37 -834 -213 -1150 -462 -394 -311 -672 -734 -790
-1204 -32 -130 -60 -304 -60 -378 0 -93 65 -188 158 -231 32 -15 75 -18 347
-18 349 0 360 2 433 69 51 46 77 98 87 171 56 403 313 754 677 925 95 44 229
85 332 101 105 17 362 5 458 -20 145 -38 373 -142 351 -160 -4 -4 -75 -59
-158 -121 -185 -140 -334 -261 -490 -401 -283 -253 -320 -308 -320 -469 0 -79
4 -103 24 -142 34 -71 92 -130 163 -169 60 -32 68 -34 163 -34 127 0 169 18
272 117 159 153 439 483 638 751 92 124 81 125 150 -18 48 -98 89 -228 105
-334 16 -100 29 -131 77 -182 76 -82 90 -84 448 -84 272 0 315 3 347 18 93 43
158 138 158 231 0 129 -61 418 -126 593 -350 951 -1291 1546 -2294 1451z m545
-188 c358 -57 747 -241 1005 -474 l42 -38 -73 -74 c-68 -68 -77 -74 -115 -74
-35 0 -63 -15 -223 -124 l-183 -124 -57 38 c-86 57 -192 108 -304 145 -94 31
-259 65 -314 65 l-23 0 0 343 0 343 88 -7 c48 -4 119 -13 157 -19z m-425 -319
l0 -339 -67 -7 c-227 -24 -484 -128 -674 -273 l-72 -54 -240 240 -240 240 78
63 c252 208 567 362 880 428 116 25 208 38 283 40 l52 1 0 -339z m-1002 -886
c-125 -166 -218 -382 -253 -585 -26 -150 -1 -140 -352 -140 l-294 0 -24 25
c-30 29 -31 48 -10 188 19 125 66 303 109 417 78 202 213 431 347 589 l62 73
240 -240 240 -240 -65 -87z m2697 450 c221 -283 359 -595 415 -940 26 -158 26
-180 -5 -210 l-24 -25 -294 0 c-353 0 -324 -12 -356 156 -33 172 -89 319 -179
468 -23 37 -42 72 -42 76 0 5 52 86 116 180 98 144 118 180 121 219 5 41 13
54 76 118 83 85 71 88 172 -42z m-470 -142 c-48 -74 -211 -304 -313 -443 -301
-405 -655 -809 -737 -840 -61 -23 -147 -7 -199 39 -54 47 -70 143 -37 216 40
89 429 429 831 727 155 114 459 328 468 328 2 0 -4 -12 -13 -27z"/>
<path d="M1334 1871 c-54 -23 -54 -19 -54 -508 l0 -452 24 -28 24 -28 204 0
c202 0 203 0 260 28 99 48 158 137 166 248 5 79 -14 148 -57 199 l-28 34 32
41 c108 142 52 361 -113 442 -56 27 -62 28 -247 30 -104 2 -200 -1 -211 -6z
m399 -185 c78 -52 74 -167 -6 -216 -27 -17 -51 -20 -154 -20 l-123 0 0 131 0
131 128 -4 c104 -3 132 -7 155 -22z m-6 -426 c80 -49 84 -164 6 -216 -23 -15
-53 -19 -155 -22 l-128 -4 0 131 0 131 123 0 c103 0 127 -3 154 -20z"/>
<path d="M2250 1852 l-30 -30 0 -456 0 -455 24 -27 c33 -39 89 -39 122 0 24
27 24 28 25 284 l0 257 49 -97 c52 -101 77 -128 120 -128 43 0 68 27 120 128
l49 97 0 -257 c1 -256 1 -257 25 -284 33 -39 89 -39 122 0 l24 27 0 455 0 456
-30 30 c-26 25 -36 29 -62 24 -18 -3 -39 -13 -47 -20 -9 -8 -56 -96 -106 -195
-49 -100 -92 -181 -95 -181 -3 0 -46 81 -95 181 -50 99 -97 187 -106 195 -8 7
-29 17 -47 20 -26 5 -36 1 -62 -24z"/>
<path d="M3191 1855 c-40 -34 -43 -84 -6 -120 22 -23 31 -25 125 -25 l100 0 0
-345 0 -345 -100 0 c-94 0 -103 -2 -125 -25 -34 -33 -34 -83 1 -116 l26 -24
290 0 290 0 24 28 c29 34 31 76 5 108 -17 22 -29 24 -128 29 l-108 5 0 340 0
340 108 5 c99 5 111 7 128 29 26 32 24 74 -5 108 l-24 28 -285 3 -284 3 -32
-26z"/>
</g>
</svg>
