<?xml version="1.0" encoding="UTF-8"?>
<svg version="1.1" xmlns="http://www.w3.org/2000/svg" width="512" height="512">
<path d="M0 0 C0.96679688 0.62261719 0.96679688 0.62261719 1.953125 1.2578125 C2.65953125 1.69351563 3.3659375 2.12921875 4.09375 2.578125 C11.28534559 7.45242868 14.24107649 13.12166698 16.953125 21.2578125 C16.953125 55.5778125 16.953125 89.8978125 16.953125 125.2578125 C85.593125 125.2578125 154.233125 125.2578125 224.953125 125.2578125 C224.953125 90.9378125 224.953125 56.6178125 224.953125 21.2578125 C229.7506442 9.2640145 233.63992718 3.8210682 244.953125 -1.7421875 C252.35075884 -4.35032764 263.2208108 -3.82604763 270.515625 -1.1171875 C277.97396952 2.46181675 283.47058335 7.70777104 286.953125 15.2578125 C287.84136656 18.23249649 288.47754834 21.19140778 288.953125 24.2578125 C290.438125 23.5153125 290.438125 23.5153125 291.953125 22.7578125 C299.63478747 19.89601668 310.34692703 19.72127978 317.953125 22.8828125 C320 24 320 24 321.953125 25.2578125 C323.01273437 25.91136719 323.01273437 25.91136719 324.09375 26.578125 C331.02918376 31.27880788 334.69355407 37.25539805 336.953125 45.2578125 C337.1266801 47.97010362 337.20698436 50.57414717 337.18017578 53.28271484 C337.18046783 54.06387665 337.18075989 54.84503845 337.18106079 55.64987183 C337.17967492 58.21461353 337.16414898 60.77905947 337.1484375 63.34375 C337.14470472 65.12879274 337.141859 66.91383753 337.13986206 68.69888306 C337.13224643 73.38423373 337.11261579 78.0694593 337.0904541 82.75476074 C337.06995099 87.54091703 337.06085081 92.32709365 337.05078125 97.11328125 C337.02936789 106.49484646 336.99525703 115.87631905 336.953125 125.2578125 C338.84889282 125.23726807 338.84889282 125.23726807 340.78295898 125.21630859 C348.33229896 125.13449641 354.95260555 128.44659622 360.421875 133.5546875 C367.81553791 141.77825135 369.53502567 150.49226885 369.265625 161.26953125 C368.79129865 169.65522581 365.17842977 176.6607495 358.953125 182.2578125 C351.837554 187.6087219 345.75289233 189.35699021 336.953125 189.2578125 C336.96200745 190.23785248 336.97088989 191.21789246 336.9800415 192.22763062 C337.0613782 201.49562083 337.12121028 210.76353795 337.16037369 220.03180504 C337.18118542 224.79593235 337.20938489 229.55976988 337.25488281 234.32373047 C337.29857064 238.92734218 337.32231027 243.53067639 337.33263397 248.13447952 C337.33998439 249.88464344 337.35433746 251.63479338 337.37604523 253.3848381 C337.50769008 264.44481447 337.1331129 273.04754476 330.765625 282.5078125 C323.25604743 289.85051057 315.68764565 293.65068766 305.078125 293.5703125 C304.02238281 293.56837891 304.02238281 293.56837891 302.9453125 293.56640625 C297.62546773 293.46789061 293.6802944 292.6213972 288.953125 290.2578125 C288.64375 292.206875 288.64375 292.206875 288.328125 294.1953125 C286.48858193 302.31996108 281.85716594 308.41098715 274.9921875 313.0390625 C266.19119899 318.29942345 255.87867516 318.84772479 245.94140625 316.56640625 C237.16585184 313.35452646 231.0567415 307.61873901 226.953125 299.2578125 C215.35619054 264.46700912 224.953125 225.93053927 224.953125 189.2578125 C156.313125 189.2578125 87.673125 189.2578125 16.953125 189.2578125 C16.953125 223.5778125 16.953125 257.8978125 16.953125 293.2578125 C12.67966943 303.94145142 9.12816253 310.2638143 -1.046875 315.2578125 C-8.98557717 318.45799654 -20.04046515 318.9862826 -28.046875 315.6328125 C-30.09375 314.515625 -30.09375 314.515625 -32.046875 313.2578125 C-32.75328125 312.82210938 -33.4596875 312.38640625 -34.1875 311.9375 C-40.82890803 307.43610122 -44.57758699 302.08539154 -46.359375 294.2578125 C-46.60435235 292.92729334 -46.83953158 291.59471334 -47.046875 290.2578125 C-48.036875 290.7528125 -49.026875 291.2478125 -50.046875 291.7578125 C-57.72853747 294.61960832 -68.44067703 294.79434522 -76.046875 291.6328125 C-78.09375 290.515625 -78.09375 290.515625 -80.046875 289.2578125 C-80.75328125 288.82210938 -81.4596875 288.38640625 -82.1875 287.9375 C-89.12293376 283.23681712 -92.78730407 277.26022695 -95.046875 269.2578125 C-95.2204301 266.54552138 -95.30073436 263.94147783 -95.27392578 261.23291016 C-95.27421783 260.45174835 -95.27450989 259.67058655 -95.27481079 258.86575317 C-95.27342492 256.30101147 -95.25789898 253.73656553 -95.2421875 251.171875 C-95.23845472 249.38683226 -95.235609 247.60178747 -95.23361206 245.81674194 C-95.22599643 241.13139127 -95.20636579 236.4461657 -95.1842041 231.76086426 C-95.16370099 226.97470797 -95.15460081 222.18853135 -95.14453125 217.40234375 C-95.12311789 208.02077854 -95.08900703 198.63930595 -95.046875 189.2578125 C-96.31072021 189.27150879 -97.57456543 189.28520508 -98.87670898 189.29931641 C-106.42604896 189.38112859 -113.04635555 186.06902878 -118.515625 180.9609375 C-125.90928791 172.73737365 -127.62877567 164.02335615 -127.359375 153.24609375 C-126.88504865 144.86039919 -123.27217977 137.8548755 -117.046875 132.2578125 C-109.931304 126.9069031 -103.84664233 125.15863479 -95.046875 125.2578125 C-95.05575745 124.27777252 -95.06463989 123.29773254 -95.0737915 122.28799438 C-95.1551282 113.02000417 -95.21496028 103.75208705 -95.25412369 94.48381996 C-95.27493542 89.71969265 -95.30313489 84.95585512 -95.34863281 80.19189453 C-95.39232064 75.58828282 -95.41606027 70.98494861 -95.42638397 66.38114548 C-95.43373439 64.63098156 -95.44808746 62.88083162 -95.46979523 61.1307869 C-95.61067881 49.29463027 -95.24909621 38.88910491 -86.75 29.7890625 C-79.83567331 23.5725119 -72.46612725 20.8749015 -63.171875 20.9453125 C-62.46804687 20.94660156 -61.76421875 20.94789062 -61.0390625 20.94921875 C-55.71921773 21.04773439 -51.7740444 21.8942278 -47.046875 24.2578125 C-46.840625 22.9584375 -46.634375 21.6590625 -46.421875 20.3203125 C-44.33446008 11.21289263 -39.19331739 5.80900662 -31.609375 0.66796875 C-22.56474194 -4.30933694 -9.21470503 -5.02940008 0 0 Z M-26.046875 18.2578125 C-30.03543405 23.32436048 -31.16804929 27.50475342 -31.17830276 33.84595871 C-31.18214391 34.74211293 -31.18598505 35.63826715 -31.1899426 36.56157756 C-31.18907612 37.53695704 -31.18820963 38.51233652 -31.18731689 39.51727295 C-31.19028802 40.56058439 -31.19325914 41.60389582 -31.1963203 42.67882276 C-31.20500239 46.18009567 -31.20651513 49.68133436 -31.20800781 53.18261719 C-31.21263631 55.69088819 -31.21766101 58.1991585 -31.22305298 60.70742798 C-31.23617543 67.52570083 -31.2426584 74.34396242 -31.24706364 81.16224575 C-31.24982871 85.42161368 -31.25406654 89.68097936 -31.25856781 93.94034576 C-31.2707581 105.73920423 -31.28105804 117.53806088 -31.2844429 129.33692551 C-31.28466247 130.09169432 -31.28488203 130.84646314 -31.28510825 131.62410374 C-31.28532653 132.38065079 -31.28554481 133.13719784 -31.2857697 133.91667056 C-31.28621316 135.44965537 -31.28665973 136.98264019 -31.28710938 138.515625 C-31.2873308 139.27603408 -31.28755223 140.03644316 -31.28778037 140.81989494 C-31.29172764 153.13872375 -31.30918053 165.45749338 -31.3324689 177.77629933 C-31.35619964 190.43151231 -31.36864553 203.08669561 -31.36981082 215.7419312 C-31.37072659 222.84429095 -31.37645414 229.94657358 -31.39463043 237.04891205 C-31.41166919 243.73017067 -31.41327119 250.41125809 -31.40449142 257.09254074 C-31.40372056 259.54308082 -31.40807028 261.99362873 -31.41794968 264.44414902 C-31.43065799 267.7930794 -31.42479795 271.14149056 -31.41436768 274.49041748 C-31.42242408 275.45687407 -31.43048048 276.42333066 -31.43878102 277.41907382 C-31.39268973 283.75999497 -31.01908103 290.92946793 -26.59494138 295.88372111 C-21.84572012 299.9356274 -18.6514012 300.613815 -12.5859375 300.53515625 C-8.82227098 300.12404806 -6.82897313 298.7749489 -4.046875 296.2578125 C-0.05831595 291.19126452 1.07429929 287.01087158 1.08455276 280.66966629 C1.09031448 279.32543496 1.09031448 279.32543496 1.0961926 277.95404744 C1.09532612 276.97866796 1.09445963 276.00328848 1.09356689 274.99835205 C1.09653802 273.95504061 1.09950914 272.91172918 1.1025703 271.83680224 C1.11125239 268.33552933 1.11276513 264.83429064 1.11425781 261.33300781 C1.11888631 258.82473681 1.12391101 256.3164665 1.12930298 253.80819702 C1.14242543 246.98992417 1.1489084 240.17166258 1.15331364 233.35337925 C1.15607871 229.09401132 1.16031654 224.83464564 1.16481781 220.57527924 C1.1770081 208.77642077 1.18730804 196.97756412 1.1906929 185.17869949 C1.19091247 184.42393068 1.19113203 183.66916186 1.19135825 182.89152126 C1.19157653 182.13497421 1.19179481 181.37842716 1.1920197 180.59895444 C1.19246316 179.06596963 1.19290973 177.53298481 1.19335938 176 C1.19369152 174.85938638 1.19369152 174.85938638 1.19403037 173.69573006 C1.19797764 161.37690125 1.21543053 149.05813162 1.2387189 136.73932567 C1.26244964 124.08411269 1.27489553 111.42892939 1.27606082 98.7736938 C1.27697659 91.67133405 1.28270414 84.56905142 1.30088043 77.46671295 C1.31791919 70.78545433 1.31952119 64.10436691 1.31074142 57.42308426 C1.30997056 54.97254418 1.31432028 52.52199627 1.32419968 50.07147598 C1.33690799 46.7225456 1.33104795 43.37413444 1.32061768 40.02520752 C1.32867408 39.05875093 1.33673048 38.09229434 1.34503102 37.09655118 C1.29893973 30.75563003 0.92533103 23.58615707 -3.49880862 18.63190389 C-8.24802988 14.5799976 -11.4423488 13.90181 -17.5078125 13.98046875 C-21.27147902 14.39157694 -23.26477687 15.7406761 -26.046875 18.2578125 Z M245.953125 18.2578125 C241.96456595 23.32436048 240.83195071 27.50475342 240.82169724 33.84595871 C240.81785609 34.74211293 240.81401495 35.63826715 240.8100574 36.56157756 C240.81092388 37.53695704 240.81179037 38.51233652 240.81268311 39.51727295 C240.80971198 40.56058439 240.80674086 41.60389582 240.8036797 42.67882276 C240.79499761 46.18009567 240.79348487 49.68133436 240.79199219 53.18261719 C240.78736369 55.69088819 240.78233899 58.1991585 240.77694702 60.70742798 C240.76382457 67.52570083 240.7573416 74.34396242 240.75293636 81.16224575 C240.75017129 85.42161368 240.74593346 89.68097936 240.74143219 93.94034576 C240.7292419 105.73920423 240.71894196 117.53806088 240.7155571 129.33692551 C240.71533753 130.09169432 240.71511797 130.84646314 240.71489175 131.62410374 C240.71467347 132.38065079 240.71445519 133.13719784 240.7142303 133.91667056 C240.71378684 135.44965537 240.71334027 136.98264019 240.71289062 138.515625 C240.7126692 139.27603408 240.71244777 140.03644316 240.71221963 140.81989494 C240.70827236 153.13872375 240.69081947 165.45749338 240.6675311 177.77629933 C240.64380036 190.43151231 240.63135447 203.08669561 240.63018918 215.7419312 C240.62927341 222.84429095 240.62354586 229.94657358 240.60536957 237.04891205 C240.58833081 243.73017067 240.58672881 250.41125809 240.59550858 257.09254074 C240.59627944 259.54308082 240.59192972 261.99362873 240.58205032 264.44414902 C240.56934201 267.7930794 240.57520205 271.14149056 240.58563232 274.49041748 C240.57757592 275.45687407 240.56951952 276.42333066 240.56121898 277.41907382 C240.60731027 283.75999497 240.98091897 290.92946793 245.40505862 295.88372111 C250.15427988 299.9356274 253.3485988 300.613815 259.4140625 300.53515625 C263.17772902 300.12404806 265.17102687 298.7749489 267.953125 296.2578125 C271.94168405 291.19126452 273.07429929 287.01087158 273.08455276 280.66966629 C273.09031448 279.32543496 273.09031448 279.32543496 273.0961926 277.95404744 C273.09532612 276.97866796 273.09445963 276.00328848 273.09356689 274.99835205 C273.09653802 273.95504061 273.09950914 272.91172918 273.1025703 271.83680224 C273.11125239 268.33552933 273.11276513 264.83429064 273.11425781 261.33300781 C273.11888631 258.82473681 273.12391101 256.3164665 273.12930298 253.80819702 C273.14242543 246.98992417 273.1489084 240.17166258 273.15331364 233.35337925 C273.15607871 229.09401132 273.16031654 224.83464564 273.16481781 220.57527924 C273.1770081 208.77642077 273.18730804 196.97756412 273.1906929 185.17869949 C273.19091247 184.42393068 273.19113203 183.66916186 273.19135825 182.89152126 C273.19157653 182.13497421 273.19179481 181.37842716 273.1920197 180.59895444 C273.19246316 179.06596963 273.19290973 177.53298481 273.19335938 176 C273.19369152 174.85938638 273.19369152 174.85938638 273.19403037 173.69573006 C273.19797764 161.37690125 273.21543053 149.05813162 273.2387189 136.73932567 C273.26244964 124.08411269 273.27489553 111.42892939 273.27606082 98.7736938 C273.27697659 91.67133405 273.28270414 84.56905142 273.30088043 77.46671295 C273.31791919 70.78545433 273.31952119 64.10436691 273.31074142 57.42308426 C273.30997056 54.97254418 273.31432028 52.52199627 273.32419968 50.07147598 C273.33690799 46.7225456 273.33104795 43.37413444 273.32061768 40.02520752 C273.32867408 39.05875093 273.33673048 38.09229434 273.34503102 37.09655118 C273.29893973 30.75563003 272.92533103 23.58615707 268.50119138 18.63190389 C263.75197012 14.5799976 260.5576512 13.90181 254.4921875 13.98046875 C250.72852098 14.39157694 248.73522313 15.7406761 245.953125 18.2578125 Z M-74.046875 42.2578125 C-79.00074452 48.55056568 -79.19586287 53.91703318 -79.18731689 61.69500732 C-79.19028802 62.54230825 -79.19325914 63.38960917 -79.1963203 64.26258588 C-79.20498884 67.10052301 -79.20651398 69.93841787 -79.20800781 72.77636719 C-79.21263728 74.81173797 -79.21766211 76.84710789 -79.22305298 78.88247681 C-79.23616632 84.41153398 -79.24261983 89.94057902 -79.24706364 95.46964931 C-79.249996 98.92497101 -79.25410111 102.3802894 -79.25856781 105.83560944 C-79.27223975 116.64941605 -79.28190797 127.46321509 -79.2857697 138.27702975 C-79.29025025 150.75466921 -79.30779936 163.23219911 -79.3367703 175.70980525 C-79.35839414 185.3583768 -79.36847435 195.00691753 -79.36981082 204.65551305 C-79.37085831 210.41649034 -79.37675442 216.17736459 -79.39463043 221.93831635 C-79.41112323 227.35886897 -79.41326066 232.77924124 -79.40449142 238.19981003 C-79.40372171 240.18593453 -79.40805508 242.17206879 -79.41794968 244.15816879 C-79.43069501 246.87655359 -79.42477837 249.59430208 -79.41436768 252.31268311 C-79.42242408 253.09237418 -79.43048048 253.87206525 -79.43878102 254.67538333 C-79.38609912 260.58630667 -78.66705609 267.31082789 -74.59494138 271.89083934 C-69.83604727 275.92996533 -66.65383237 276.61384653 -60.5859375 276.53515625 C-56.82227098 276.12404806 -54.82897313 274.7749489 -52.046875 272.2578125 C-47.09300548 265.96505932 -46.89788713 260.59859182 -46.90643311 252.82061768 C-46.90346198 251.97331675 -46.90049086 251.12601583 -46.8974297 250.25303912 C-46.88876116 247.41510199 -46.88723602 244.57720713 -46.88574219 241.73925781 C-46.88111272 239.70388703 -46.87608789 237.66851711 -46.87069702 235.63314819 C-46.85758368 230.10409102 -46.85113017 224.57504598 -46.84668636 219.04597569 C-46.843754 215.59065399 -46.83964889 212.1353356 -46.83518219 208.68001556 C-46.82151025 197.86620895 -46.81184203 187.05240991 -46.8079803 176.23859525 C-46.80349975 163.76095579 -46.78595064 151.28342589 -46.7569797 138.80581975 C-46.73535586 129.1572482 -46.72527565 119.50870747 -46.72393918 109.86011195 C-46.72289169 104.09913466 -46.71699558 98.33826041 -46.69911957 92.57730865 C-46.68262677 87.15675603 -46.68048934 81.73638376 -46.68925858 76.31581497 C-46.69002829 74.32969047 -46.68569492 72.34355621 -46.67580032 70.35745621 C-46.66305499 67.63907141 -46.66897163 64.92132292 -46.67938232 62.20294189 C-46.67132592 61.42325082 -46.66326952 60.64355975 -46.65496898 59.84024167 C-46.70765088 53.92931833 -47.42669391 47.20479711 -51.49880862 42.62478566 C-56.25770273 38.58565967 -59.43991763 37.90177847 -65.5078125 37.98046875 C-69.27147902 38.39157694 -71.26477687 39.7406761 -74.046875 42.2578125 Z M293.953125 42.2578125 C288.99925548 48.55056568 288.80413713 53.91703318 288.81268311 61.69500732 C288.80971198 62.54230825 288.80674086 63.38960917 288.8036797 64.26258588 C288.79501116 67.10052301 288.79348602 69.93841787 288.79199219 72.77636719 C288.78736272 74.81173797 288.78233789 76.84710789 288.77694702 78.88247681 C288.76383368 84.41153398 288.75738017 89.94057902 288.75293636 95.46964931 C288.750004 98.92497101 288.74589889 102.3802894 288.74143219 105.83560944 C288.72776025 116.64941605 288.71809203 127.46321509 288.7142303 138.27702975 C288.70974975 150.75466921 288.69220064 163.23219911 288.6632297 175.70980525 C288.64160586 185.3583768 288.63152565 195.00691753 288.63018918 204.65551305 C288.62914169 210.41649034 288.62324558 216.17736459 288.60536957 221.93831635 C288.58887677 227.35886897 288.58673934 232.77924124 288.59550858 238.19981003 C288.59627829 240.18593453 288.59194492 242.17206879 288.58205032 244.15816879 C288.56930499 246.87655359 288.57522163 249.59430208 288.58563232 252.31268311 C288.57757592 253.09237418 288.56951952 253.87206525 288.56121898 254.67538333 C288.61390088 260.58630667 289.33294391 267.31082789 293.40505862 271.89083934 C298.16395273 275.92996533 301.34616763 276.61384653 307.4140625 276.53515625 C311.17772902 276.12404806 313.17102687 274.7749489 315.953125 272.2578125 C320.90699452 265.96505932 321.10211287 260.59859182 321.09356689 252.82061768 C321.09653802 251.97331675 321.09950914 251.12601583 321.1025703 250.25303912 C321.11123884 247.41510199 321.11276398 244.57720713 321.11425781 241.73925781 C321.11888728 239.70388703 321.12391211 237.66851711 321.12930298 235.63314819 C321.14241632 230.10409102 321.14886983 224.57504598 321.15331364 219.04597569 C321.156246 215.59065399 321.16035111 212.1353356 321.16481781 208.68001556 C321.17848975 197.86620895 321.18815797 187.05240991 321.1920197 176.23859525 C321.19650025 163.76095579 321.21404936 151.28342589 321.2430203 138.80581975 C321.26464414 129.1572482 321.27472435 119.50870747 321.27606082 109.86011195 C321.27710831 104.09913466 321.28300442 98.33826041 321.30088043 92.57730865 C321.31737323 87.15675603 321.31951066 81.73638376 321.31074142 76.31581497 C321.30997171 74.32969047 321.31430508 72.34355621 321.32419968 70.35745621 C321.33694501 67.63907141 321.33102837 64.92132292 321.32061768 62.20294189 C321.32867408 61.42325082 321.33673048 60.64355975 321.34503102 59.84024167 C321.29234912 53.92931833 320.57330609 47.20479711 316.50119138 42.62478566 C311.74229727 38.58565967 308.56008237 37.90177847 302.4921875 37.98046875 C298.72852098 38.39157694 296.73522313 39.7406761 293.953125 42.2578125 Z M16.953125 141.2578125 C16.953125 151.8178125 16.953125 162.3778125 16.953125 173.2578125 C85.593125 173.2578125 154.233125 173.2578125 224.953125 173.2578125 C224.953125 162.6978125 224.953125 152.1378125 224.953125 141.2578125 C156.313125 141.2578125 87.673125 141.2578125 16.953125 141.2578125 Z M-106.046875 146.2578125 C-109.98314432 150.60842595 -110.68571419 154.17558256 -110.4296875 159.859375 C-109.62118204 164.92490923 -106.97109204 167.51057319 -103.109375 170.6328125 C-99.88857074 172.64840901 -99.88857074 172.64840901 -95.046875 172.2578125 C-95.046875 162.3578125 -95.046875 152.4578125 -95.046875 142.2578125 C-100.6009242 142.2578125 -101.85435096 142.86811221 -106.046875 146.2578125 Z M336.953125 142.2578125 C336.953125 152.1578125 336.953125 162.0578125 336.953125 172.2578125 C344.41181349 171.19228557 345.14580973 171.06512777 349.953125 166.2578125 C352.68956867 161.80291957 352.59622819 157.33832771 351.953125 152.2578125 C349.61783299 147.40759064 346.6936936 144.77321625 341.953125 142.2578125 C340.303125 142.2578125 338.653125 142.2578125 336.953125 142.2578125 Z " fill="#ffff00" transform="translate(135.046875,98.7421875)"/>
</svg>
