<?xml version="1.0" encoding="UTF-8"?>
<svg version="1.1" xmlns="http://www.w3.org/2000/svg" width="512" height="512">
<path d="M0 0 C1.51235937 -0.00967334 1.51235937 -0.00967334 3.05527145 -0.0195421 C4.15584339 -0.01644489 5.25641533 -0.01334769 6.39033794 -0.01015663 C8.15237396 -0.0169533 8.15237396 -0.0169533 9.95000666 -0.02388728 C13.20696069 -0.03435766 16.46377588 -0.03585708 19.72074139 -0.03349853 C23.23482954 -0.0330903 26.74888477 -0.04413004 30.26295757 -0.05361366 C37.1464455 -0.07022356 44.02989917 -0.07572321 50.91340546 -0.07683842 C56.50914214 -0.07778892 62.10486752 -0.0818993 67.70060062 -0.08823967 C83.56774849 -0.10585221 99.43486931 -0.11507854 115.30202702 -0.11357872 C116.15735295 -0.11349881 117.01267887 -0.1134189 117.89392376 -0.11333656 C118.75029482 -0.1132548 119.60666589 -0.11317304 120.48898759 -0.1130888 C134.36694414 -0.11227594 148.24479214 -0.13141354 162.1227173 -0.1596133 C176.37463836 -0.18834434 190.62650649 -0.20215346 204.87845725 -0.20042574 C212.87897302 -0.19976191 220.87937501 -0.20525133 228.87986469 -0.22678185 C235.69188013 -0.24499658 242.50373021 -0.24933866 249.31575946 -0.235763 C252.79023326 -0.22923468 256.26438984 -0.22911074 259.73883343 -0.2464695 C263.50861317 -0.26187648 267.27755892 -0.25264237 271.04732037 -0.23720741 C272.14120014 -0.24749454 273.23507992 -0.25778167 274.36210757 -0.26838052 C281.99670898 -0.19927068 286.94364766 1.24617716 293.11633587 5.93305016 C299.18574849 12.12060219 301.88008457 18.57891489 301.90930462 27.25726891 C301.34740135 34.31770565 298.56365259 39.95419545 293.90930462 45.25726891 C287.40915347 50.77702536 280.50589466 52.36879947 272.14758587 52.30023766 C271.16443401 52.29403404 270.18128216 52.28783043 269.16833782 52.28143883 C268.05011639 52.26947472 268.05011639 52.26947472 266.90930462 52.25726891 C266.93025188 53.05495689 266.95119915 53.85264488 266.97278118 54.67450523 C268.50613194 122.54468593 243.86756044 179.7615705 197.42785931 228.39789391 C188.3368045 237.93008544 182.59155121 245.50041546 182.90930462 259.25726891 C184.43637073 268.74779551 188.31700393 274.97162666 195.22180462 281.63226891 C199.05204855 285.37698804 202.72125704 289.18601715 206.19055462 293.26898766 C207.38781242 294.65399724 208.62020665 296.00907601 209.87805462 297.33930016 C220.80354956 308.95753481 230.00701889 322.4323591 237.90930462 336.25726891 C238.25912395 336.86264488 238.60894329 337.46802086 238.96936321 338.09174156 C253.52502088 363.51442616 261.74172121 391.38892371 265.90930462 420.25726891 C266.01605511 420.95199303 266.1228056 421.64671715 266.23279095 422.36249352 C267.25866197 429.97231291 267.01815212 437.65843969 266.97180462 445.31976891 C266.96677876 446.77224132 266.96221778 448.22471542 266.95813274 449.67719078 C266.94721503 453.20391905 266.93001048 456.73058292 266.90930462 460.25726891 C267.64245892 460.24349205 268.37561321 460.22971519 269.13098431 460.21552086 C270.10454876 460.20480553 271.07811321 460.19409019 272.08117962 460.18305016 C273.04120892 460.1692733 274.00123821 460.15549644 274.99035931 460.14130211 C282.44981924 460.43765904 289.52759777 463.01285049 294.90930462 468.25726891 C299.97679946 474.05254227 301.51990012 480.67885836 301.90930462 488.25726891 C301.2281902 497.36196165 296.6620968 502.86713028 290.00696087 508.74164391 C286.12111821 511.54929186 282.57470366 512.50682389 277.81860924 512.51453781 C276.81036966 512.5209867 275.80213008 512.5274356 274.76333779 512.53407991 C273.66276585 512.53098271 272.5621939 512.5278855 271.42827129 512.52469444 C270.25358062 512.52922556 269.07888994 512.53375667 267.86860257 512.53842509 C264.61164854 512.54889547 261.35483336 512.55039489 258.09786785 512.54803634 C254.5837797 512.54762811 251.06972447 512.55866785 247.55565166 512.56815147 C240.67216374 512.58476137 233.78871007 512.59026102 226.90520378 512.59137623 C221.3094671 512.59232673 215.71374172 512.59643711 210.11800861 512.60277748 C194.25086075 512.62039002 178.38373993 512.62961636 162.51658221 512.62811653 C161.66125629 512.62803662 160.80593037 512.62795671 159.92468548 512.62787437 C159.06831441 512.62779261 158.21194335 512.62771085 157.32962165 512.62762661 C143.4516651 512.62681375 129.57381709 512.64595135 115.69589194 512.67415111 C101.44397088 512.70288215 87.19210275 512.71669128 72.94015199 512.71496356 C64.93963622 512.71429972 56.93923423 512.71978914 48.93874454 512.74131966 C42.12672911 512.7595344 35.31487903 512.76387647 28.50284978 512.75030081 C25.02837598 512.74377249 21.5542194 512.74364855 18.07977581 512.76100731 C14.30999607 512.7764143 10.54105031 512.76718019 6.77128887 512.75174522 C5.67740909 512.76203235 4.58352931 512.77231948 3.45650166 512.78291833 C-4.17809975 512.71380849 -9.12503842 511.26836065 -15.29772663 506.58148766 C-21.36713925 500.39393562 -24.06147533 493.93562293 -24.09069538 485.25726891 C-23.52879211 478.19683216 -20.74504335 472.56034236 -16.09069538 467.25726891 C-9.59054423 461.73751245 -2.68728542 460.14573834 5.67102337 460.21430016 C6.65417522 460.22050377 7.63732708 460.22670738 8.65027142 460.23309898 C9.39575237 460.24107506 10.14123333 460.24905113 10.90930462 460.25726891 C10.88835735 459.45958092 10.86741009 458.66189293 10.84582806 457.84003258 C9.34631768 391.46771726 32.82146028 334.20275501 78.28430462 286.38226891 C78.95042767 285.69262047 79.61655071 285.00297203 80.30285931 284.29242516 C88.28625218 275.9598341 94.72131251 268.45634955 94.96789837 256.39008141 C94.20306093 244.64087653 89.9569863 238.58482404 81.90930462 230.25726891 C44.20874566 190.8650182 19.76824384 146.69518848 11.90930462 92.25726891 C11.80255413 91.56254478 11.69580364 90.86782066 11.58581829 90.1520443 C10.55994727 82.5422249 10.80045712 74.85609812 10.84680462 67.19476891 C10.85183047 65.74229649 10.85639146 64.28982239 10.86047649 62.83734703 C10.8713942 59.31061876 10.88859876 55.78395489 10.90930462 52.25726891 C9.80957317 52.27793419 9.80957317 52.27793419 8.68762493 52.29901695 C7.71406048 52.30973228 6.74049603 52.32044762 5.73742962 52.33148766 C4.77740032 52.34526451 3.81737103 52.35904137 2.82824993 52.3732357 C-4.63121 52.07687877 -11.70898853 49.50168732 -17.09069538 44.25726891 C-22.15819023 38.46199554 -23.70129089 31.83567945 -24.09069538 24.25726891 C-23.40958096 15.15257617 -18.84348756 9.64740753 -12.18835163 3.77289391 C-8.30250897 0.96524595 -4.75609442 0.00771392 0 0 Z M-3.7521944 20.07026482 C-5.73545577 23.31075607 -5.6217408 25.53995096 -5.09069538 29.25726891 C-2.87206509 32.16443964 -1.5712461 33.09708533 1.90930462 34.25726891 C3.4509884 34.34998438 4.99638035 34.38637145 6.54084778 34.38869667 C7.49757112 34.39253782 8.45429446 34.39637896 9.44000942 34.4003365 C10.49329801 34.39947002 11.5465866 34.39860354 12.63179302 34.3977108 C13.74901625 34.40068192 14.86623948 34.40365304 16.01731795 34.4067142 C19.78055601 34.41542208 23.54376234 34.41691121 27.3070097 34.41840172 C29.9971917 34.42302839 32.68737078 34.42803207 35.37755108 34.43344688 C42.69985516 34.44703339 50.02215377 34.45305539 57.34446836 34.45745754 C61.91570512 34.46021936 66.48693976 34.4644566 71.05817509 34.46896172 C83.71222107 34.48115467 96.36626535 34.49145402 109.02031708 34.49483681 C109.83032783 34.49505637 110.64033857 34.49527594 111.4748951 34.49550216 C112.28685379 34.49572044 113.09881249 34.49593871 113.93537599 34.49616361 C115.58073827 34.49660707 117.22610054 34.49705364 118.87146282 34.49750328 C119.6876209 34.49772471 120.50377898 34.49794614 121.34466913 34.49817428 C134.57096359 34.50212275 147.79720298 34.51957814 161.02347616 34.5428628 C174.59957129 34.5665706 188.17563877 34.57903839 201.75175494 34.58020473 C209.37551287 34.5811218 216.99919903 34.58688215 224.6229372 34.60502434 C231.11443744 34.6204176 237.60584373 34.62555039 244.09735874 34.61728624 C247.40951514 34.61337697 250.72144253 34.61595165 254.03358364 34.62834358 C257.62450826 34.64099248 261.21494452 34.63522429 264.80586529 34.62476158 C266.37575993 34.63684619 266.37575993 34.63684619 267.97736961 34.64917493 C273.35121105 34.6124605 277.30479532 34.37167075 281.90930462 31.25726891 C283.45517338 28.16553139 283.20289983 25.66297338 282.90930462 22.25726891 C281.65864395 19.84158905 281.65864395 19.84158905 278.90930462 18.25726891 C275.22022147 17.64780758 271.55691887 17.71836319 267.82532024 17.74933434 C266.68133015 17.74309437 265.53734005 17.73685441 264.35868359 17.73042536 C261.18279446 17.71721707 258.00751526 17.72198919 254.8316412 17.73437023 C251.40689349 17.7434083 247.9822292 17.72945722 244.55749798 17.71845055 C237.8482866 17.70064733 231.13925403 17.70451325 224.43003559 17.71610111 C218.97820472 17.72512811 213.52642402 17.72636262 208.07458782 17.72200584 C207.29918353 17.72139291 206.52377923 17.72077998 205.72487783 17.72014847 C204.14974688 17.7188696 202.57461594 17.71757274 200.99948502 17.71625811 C186.22325481 17.70484704 171.44712381 17.71797425 156.67090988 17.73945957 C143.98730427 17.75733106 131.30384509 17.7542271 118.62024212 17.73578453 C103.89753844 17.7143871 89.17492175 17.70594572 74.4522047 17.71823359 C72.88281029 17.71950781 71.31341586 17.72076529 69.74402142 17.72200584 C68.97181334 17.72262295 68.19960526 17.72324005 67.40399694 17.72387585 C61.95758415 17.72733214 56.51122646 17.72149442 51.0648222 17.71208763 C44.42904972 17.70087876 37.79346654 17.7038841 31.1577158 17.72521061 C27.77084081 17.73573622 24.38428164 17.73981761 20.99740887 17.726614 C17.32905038 17.71573962 13.66158973 17.72932537 9.99328899 17.74933434 C8.91820332 17.74041145 7.84311764 17.73148856 6.73545361 17.72229528 C1.15020083 17.70477017 1.15020083 17.70477017 -3.7521944 20.07026482 Z M28.90930462 52.25726891 C28.90930462 112.57699327 45.20122136 164.1658666 86.90930462 208.25726891 C88.49769928 210.02356377 90.08130274 211.79418303 91.65930462 213.56976891 C94.20904917 216.42857341 96.804967 219.13648479 99.59680462 221.75726891 C109.28826913 231.33630344 112.44995167 243.09860235 112.90930462 256.31586266 C112.90930462 271.04353514 106.8599597 283.42755768 96.5594511 293.75580406 C94.97539164 295.31623539 93.38489267 296.86980156 91.79211712 298.42133141 C88.94703022 301.19689207 86.28855793 304.08096451 83.72180462 307.11664391 C82.35279403 308.73349262 80.95104624 310.32270092 79.53430462 311.89789391 C42.04715238 354.02916401 28.90930462 405.05373576 28.90930462 460.25726891 C101.50930462 460.25726891 174.10930462 460.25726891 248.90930462 460.25726891 C248.90930462 399.93754454 232.61738788 348.34867121 190.90930462 304.25726891 C189.32090996 302.49097404 187.7373065 300.72035478 186.15930462 298.94476891 C183.60956006 296.0859644 181.01364224 293.37805302 178.22180462 290.75726891 C168.5303401 281.17823437 165.36865757 269.41593546 164.90930462 256.19867516 C164.90930462 241.47100267 170.95864954 229.08698013 181.25915813 218.75873375 C182.84321759 217.19830243 184.43371657 215.64473626 186.02649212 214.09320641 C188.87157902 211.31764574 191.53005131 208.4335733 194.09680462 205.39789391 C195.46581521 203.78104519 196.867563 202.19183689 198.28430462 200.61664391 C235.77145686 158.48537381 248.90930462 107.46080205 248.90930462 52.25726891 C176.30930462 52.25726891 103.70930462 52.25726891 28.90930462 52.25726891 Z M-4.09069538 481.25726891 C-5.63656414 484.34900642 -5.38429059 486.85156443 -5.09069538 490.25726891 C-3.84003471 492.67294876 -3.84003471 492.67294876 -1.09069538 494.25726891 C2.59838777 494.86673023 6.26169037 494.79617462 9.99328899 494.76520348 C11.13727909 494.77144344 12.28126919 494.7776834 13.45992565 494.78411245 C16.63581478 494.79732074 19.81109398 494.79254862 22.98696804 494.78016758 C26.41171575 494.77112951 29.83638004 494.78508059 33.26111126 494.79608727 C39.97032264 494.81389048 46.67935521 494.81002456 53.38857365 494.7984367 C58.84040452 494.7894097 64.29218522 494.78817519 69.74402142 494.79253197 C70.51942571 494.7931449 71.29483001 494.79375783 72.0937314 494.79438934 C73.66886236 494.79566822 75.2439933 494.79696507 76.81912422 494.7982797 C91.59535442 494.80969077 106.37148542 494.79656356 121.14769936 494.77507824 C133.83130497 494.75720676 146.51476415 494.76031072 159.19836712 494.77875328 C173.92107079 494.80015072 188.64368748 494.80859209 203.36640453 494.79630423 C204.93579895 494.79503001 206.50519338 494.79377252 208.07458782 494.79253197 C208.8467959 494.79191487 209.61900397 494.79129776 210.41461229 494.79066196 C215.86102508 494.78720567 221.30738278 494.7930434 226.75378704 494.80245018 C233.38955952 494.81365906 240.0251427 494.81065371 246.66089344 494.7893272 C250.04776843 494.77880159 253.43432759 494.7747202 256.82120037 494.78792381 C260.48955886 494.79879819 264.1570195 494.78521244 267.82532024 494.76520348 C269.43794876 494.77858781 269.43794876 494.77858781 271.08315563 494.79224253 C276.66840841 494.80976764 276.66840841 494.80976764 281.57080364 492.44427299 C283.55406501 489.20378174 283.44035004 486.97458685 282.90930462 483.25726891 C280.69067433 480.35009818 279.38985533 479.41745248 275.90930462 478.25726891 C274.36762084 478.16455343 272.82222888 478.12816636 271.27776146 478.12584114 C270.32103812 478.122 269.36431478 478.11815885 268.37859982 478.11420131 C266.79866694 478.11550103 266.79866694 478.11550103 265.18681622 478.11682701 C264.06959299 478.11385589 262.95236976 478.11088477 261.80129129 478.10782361 C258.03805322 478.09911573 254.27484689 478.0976266 250.51159954 478.09613609 C247.82141754 478.09150942 245.13123846 478.08650574 242.44105816 478.08109093 C235.11875408 478.06750442 227.79645547 478.06148243 220.47414088 478.05708027 C215.90290412 478.05431845 211.33166948 478.05008121 206.76043415 478.0455761 C194.10638817 478.03338314 181.45234389 478.0230838 168.79829216 478.019701 C167.98828141 478.01948144 167.17827066 478.01926187 166.34371414 478.01903565 C165.53175544 478.01881737 164.71979675 478.0185991 163.88323325 478.0183742 C162.23787097 478.01793074 160.59250869 478.01748417 158.94714642 478.01703453 C158.13098834 478.0168131 157.31483026 478.01659167 156.47394011 478.01636353 C143.24764565 478.01241506 130.02140626 477.99495967 116.79513308 477.97167501 C103.21903795 477.94796721 89.64297047 477.93549942 76.0668543 477.93433309 C68.44309637 477.93341602 60.81941021 477.92765566 53.19567204 477.90951347 C46.7041718 477.89412021 40.21276551 477.88898742 33.7212505 477.89725158 C30.4090941 477.90116084 27.09716671 477.89858616 23.7850256 477.88619423 C20.19410098 477.87354534 16.60366472 477.87931352 13.01274395 477.88977623 C11.96614752 477.88171983 10.9195511 477.87366342 9.84123963 477.86536288 C4.46739819 477.90207731 0.51381392 478.14286707 -4.09069538 481.25726891 Z " fill="#ffff00" transform="translate(117.09069538116455,-0.25726890563964844)"/>
<path d="M0 0 C1.19753906 -0.00287018 2.39507812 -0.00574036 3.62890625 -0.00869751 C6.14323402 -0.01072533 8.65757803 -0.00528607 11.171875 0.00732422 C14.98994694 0.02339518 18.80696044 0.00743037 22.625 -0.01171875 C25.08333564 -0.00973609 27.54167062 -0.00589195 30 0 C31.12535156 -0.00607269 32.25070312 -0.01214539 33.41015625 -0.0184021 C50.8464294 0.13405489 65.71520717 6.13804373 78.05859375 18.38671875 C79.04062011 19.38910139 80.02106476 20.39303583 81 21.3984375 C81.76207764 22.16099854 81.76207764 22.16099854 82.53955078 22.93896484 C95.01867481 35.47283902 104.26107582 48.97641223 107.8125 66.5234375 C107.94897949 67.18069824 108.08545898 67.83795898 108.22607422 68.51513672 C109.13422572 73.49938109 109.07608806 77.49229192 108 82.3984375 C106.3992157 84.60155487 106.3992157 84.60155487 104 86.3984375 C100.73908997 86.90180206 100.73908997 86.90180206 96.78833008 86.90637207 C96.06086232 86.91261203 95.33339457 86.918852 94.58388233 86.92528105 C92.14543593 86.94124031 89.70798512 86.92859608 87.26953125 86.91601562 C85.5217531 86.92143547 83.77397951 86.92855735 82.0262146 86.93725586 C77.27828673 86.95550861 72.53070609 86.94841366 67.78277206 86.93573952 C62.8171672 86.92562195 57.85159234 86.93500173 52.88598633 86.94128418 C44.54665786 86.94856421 36.20747103 86.93896355 27.86816406 86.91992188 C18.22277253 86.89815246 8.57771919 86.90520358 -1.06766415 86.9272275 C-9.34462602 86.94537136 -17.62148601 86.94794478 -25.89846134 86.93747282 C-30.84385281 86.93123231 -35.78908526 86.93041757 -40.73446655 86.94361877 C-45.3835676 86.9551619 -50.03223205 86.94717978 -54.68128586 86.92404175 C-56.38891245 86.91874642 -58.0965757 86.92028251 -59.80418777 86.92909241 C-62.13273352 86.93999947 -64.45987424 86.92634475 -66.78833008 86.90637207 C-68.74395622 86.90410992 -68.74395622 86.90410992 -70.73908997 86.90180206 C-74 86.3984375 -74 86.3984375 -76.39945984 84.60204315 C-79.52049593 80.30503584 -79.11793547 75.58741957 -78.6171875 70.5390625 C-75.46721179 54.02655827 -69.17097079 39.63906626 -56.671875 28 C-54.84764812 26.25249294 -53.25138368 24.39320068 -51.625 22.4609375 C-37.70884821 6.54798689 -21.00068509 -0.11332522 0 0 Z M-46.671875 43.56640625 C-52.30025138 50.41300503 -59 59.14428899 -59 68.3984375 C-10.16 68.3984375 38.68 68.3984375 89 68.3984375 C86.42761168 56.82269007 82.22150456 50.30970903 74.21875 41.7734375 C72.24727246 39.66312351 70.40355341 37.49659634 68.5625 35.2734375 C60.70739592 26.33237433 51.77980583 20.46705506 40 18.3984375 C38.35162071 18.29785917 36.70015908 18.24083577 35.04882812 18.22143555 C33.6107782 18.20218269 33.6107782 18.20218269 32.14367676 18.18254089 C31.11657593 18.17515396 30.0894751 18.16776703 29.03125 18.16015625 C27.42340637 18.14804863 27.42340637 18.14804863 25.78308105 18.13569641 C23.51360681 18.12188052 21.24411201 18.11114724 18.97460938 18.10327148 C16.67246335 18.09178664 14.3703432 18.07139084 12.06835938 18.04174805 C-14.54368681 17.69934176 -28.65038862 23.30640191 -46.671875 43.56640625 Z " fill="#ffff00" transform="translate(241,357.6015625)"/>
<path d="M0 0 C18.84694669 11.27924687 40.78833834 12.9573034 62.25927734 13.79174805 C77.08371731 14.46509058 77.08371731 14.46509058 82.08984375 19.4609375 C84.18514528 23.47258241 83.86331648 27.17909171 83.1875 31.5625 C79.69106553 39.61648756 73.71802049 45.50318574 67.4765625 51.48828125 C66.05948523 52.87857808 64.64242325 54.26889084 63.22621727 55.66007519 C60.26925602 58.5585881 57.29525853 61.43960678 54.32025146 64.31958008 C51.86530757 66.69644372 49.41557042 69.07812156 46.97885132 71.47367859 C45.16263843 73.25750939 43.33572179 75.03053773 41.4960022 76.79011536 C27.79458246 90.27502243 21.29576031 106.11766061 19.7421875 125.1015625 C19.17146057 128.662577 18.33170071 130.69289806 16.1875 133.5625 C12.99516515 135.15866743 9.65288503 135.07716114 6.1875 134.5625 C3.75630377 132.69234906 2.54680827 131.28111655 1.1875 128.5625 C0.99468076 126.86275651 0.80598275 125.16238907 0.64355469 123.45947266 C-1.54122718 101.35797079 -11.41301984 86.85569741 -26.92578125 71.46484375 C-37.98752394 60.31149242 -46.94333432 47.10263719 -54.8125 33.5625 C-55.27914062 32.81355469 -55.74578125 32.06460938 -56.2265625 31.29296875 C-58.69207118 27.04122419 -59.33170357 23.78891936 -58.4765625 18.91796875 C-55.84486484 9.58318234 -50.55880797 2.08386556 -42.25 -3.0078125 C-27.7024893 -10.58464099 -13.65241743 -8.27090897 0 0 Z M-36.6875 16 C-39.16186448 18.95740255 -39.16186448 18.95740255 -39.8125 22.5625 C-32.68138641 38.83110829 -19.14751964 53.52211965 -6.5 65.8125 C-0.7604979 71.39418655 3.83648218 77.36130776 7.74609375 84.34765625 C8.22175781 85.07855469 8.69742188 85.80945313 9.1875 86.5625 C9.8475 86.5625 10.5075 86.5625 11.1875 86.5625 C12.22924694 85.01962116 13.1937759 83.42449674 14.125 81.8125 C22.91236856 67.73132118 36.15123325 56.48773806 47.86669922 44.86743164 C48.63256348 44.1068042 49.39842773 43.34617676 50.1875 42.5625 C51.06164551 41.69939209 51.93579102 40.83628418 52.83642578 39.94702148 C55.14570375 37.60489086 57.17986634 35.16498808 59.1875 32.5625 C58.10988403 32.45760254 58.10988403 32.45760254 57.01049805 32.35058594 C31.4971407 29.81939393 8.1883715 26.61596092 -14.01953125 13.19921875 C-22.03907735 8.49965258 -29.75022754 10.11839944 -36.6875 16 Z " fill="#ffff00" transform="translate(245.8125,121.4375)"/>
<path d="M0 0 C2.96858157 2.20740681 3.82865791 3.48597373 5 7 C5.1447963 8.95475009 5.22067502 10.9151138 5.25 12.875 C5.27578125 13.90367187 5.3015625 14.93234375 5.328125 15.9921875 C4.95207858 19.4392797 4.06101514 21.23592829 2 24 C-1.75047482 26.50031654 -3.55856266 26.53603554 -8 26 C-11.6587865 23.23995611 -12.86922316 21.75081289 -13.6640625 17.1875 C-13.67723073 15.79166805 -13.66361697 14.3953598 -13.625 13 C-13.64433594 12.30132812 -13.66367188 11.60265625 -13.68359375 10.8828125 C-13.64683233 6.98610219 -13.10896676 5.14137739 -10.71484375 2.03515625 C-6.64730287 -1.01403627 -4.97322196 -0.71046028 0 0 Z " fill="#ffff00" transform="translate(260,273)"/>
<path d="M0 0 C2.81005071 2.27841949 3.84898818 3.54696453 5 7 C5.50588195 13.19705385 5.76262822 18.75919641 2 24 C-0.64444635 26.17222379 -2.02987018 25.99893321 -5.5 25.875 C-9.4836147 24.87909632 -10.60027081 24.27894032 -13 21 C-13.58416633 18.15331253 -13.5590189 15.3968441 -13.5 12.5 C-13.51546875 11.74074219 -13.5309375 10.98148437 -13.546875 10.19921875 C-13.52075003 6.46987865 -13.43639297 4.5843228 -11.15625 1.53125 C-7.21899332 -1.26477286 -4.56078452 -1.21000406 0 0 Z " fill="#ffff00" transform="translate(260,316)"/>
</svg>
