<?xml version="1.0" encoding="UTF-8"?>
<svg version="1.1" xmlns="http://www.w3.org/2000/svg" width="512" height="512">
<path d="M0 0 C9.20420882 7.8912555 17.91733744 16.29765138 24.3125 26.6875 C24.3125 27.3475 24.3125 28.0075 24.3125 28.6875 C25.2705957 28.84400024 25.2705957 28.84400024 26.24804688 29.00366211 C41.12671957 31.46908428 55.89167502 34.34021533 70.61523438 37.60403442 C72.35292861 37.98884465 74.09136309 38.37032931 75.83056641 38.7482605 C93.8754653 42.68307994 112.34015483 47.43123745 123.3125 63.6875 C131.25688327 76.75717107 133.86126912 87.91499407 132.64233398 103.09716797 C132.51127966 104.75664365 132.51127966 104.75664365 132.37757778 106.44964409 C130.8024895 125.59536449 128.73843497 144.69990549 126.76606679 163.80773401 C126.40713517 167.28709788 126.04917996 170.76656082 125.69155693 174.24605942 C124.44009187 186.42220309 123.18522418 198.59799027 121.92700195 210.7734375 C120.75979479 222.06902306 119.60009697 233.36536275 118.44385153 244.66207516 C117.44473661 254.42037656 116.44043572 264.17813531 115.43214983 273.93549335 C114.83263133 279.73794532 114.23512729 285.54058632 113.64286995 291.34378433 C113.08654481 296.79311447 112.52371386 302.2417354 111.95606804 307.68989754 C111.75020475 309.67607995 111.54656955 311.66249492 111.34545898 313.6491642 C106.87967933 357.70542892 106.87967933 357.70542892 89.296875 372.16796875 C80.26932481 378.90577561 70.13065223 383.7954659 58.67585087 383.82172108 C57.76884656 383.82617892 56.86184225 383.83063676 55.92735296 383.83522969 C54.93982029 383.83504533 53.95228762 383.83486097 52.93482971 383.83467102 C51.8787119 383.83834771 50.82259408 383.8420244 49.73447269 383.8458125 C46.18959472 383.85684025 42.64474607 383.86069169 39.09985352 383.86450195 C36.56028653 383.87076738 34.02072046 383.87741425 31.4811554 383.88441467 C23.85537216 383.90363463 16.22959408 383.91424272 8.60379282 383.92314246 C5.00783811 383.92753065 1.41188487 383.93289616 -2.18406868 383.93813133 C-14.14676196 383.95514239 -26.10945434 383.96963426 -38.07215786 383.97688007 C-41.17465148 383.9787898 -44.27714508 383.98071016 -47.37963867 383.98266602 C-48.15069866 383.98314976 -48.92175865 383.9836335 -49.71618409 383.9841319 C-62.19331691 383.9924236 -74.67035359 384.01774648 -87.14744448 384.05024669 C-99.97331303 384.08338143 -112.79913285 384.1013347 -125.62504441 384.10452431 C-132.81981212 384.1066837 -140.01443973 384.11534798 -147.20916557 384.14098549 C-153.98322025 384.16506892 -160.75698018 384.16847808 -167.53108406 384.15822411 C-170.01016706 384.15772989 -172.48926265 384.16401635 -174.9683075 384.17778015 C-191.82318453 384.26608275 -206.4848491 383.91042385 -220.6875 373.6875 C-221.37199219 373.20925781 -222.05648437 372.73101562 -222.76171875 372.23828125 C-234.48293041 363.09619672 -240.49009307 348.91427863 -242.45916748 334.53134155 C-243.23952248 328.16674152 -243.86749303 321.78690148 -244.5 315.40625 C-244.75205846 312.9626557 -245.00528872 310.51918203 -245.25959778 308.07582092 C-245.87165766 302.16681788 -246.4717621 296.25667531 -247.06625456 290.34588593 C-247.75913192 283.46254973 -248.46593286 276.58066514 -249.17371762 269.69884837 C-250.12751521 260.42326827 -251.07806801 251.14736416 -252.02018738 241.87059021 C-252.09330786 241.15063317 -252.16642835 240.43067612 -252.24176461 239.6889022 C-252.31495995 238.96818933 -252.3881553 238.24747647 -252.46356869 237.50492382 C-254.13607201 221.03737115 -255.83794846 204.5730625 -257.55915964 188.11053312 C-258.47419429 179.35788273 -259.3840378 170.60469284 -260.29345894 161.8514576 C-260.96027496 155.43424954 -261.62868588 149.01721783 -262.30102539 142.60058594 C-262.93130468 136.5816546 -263.55491367 130.56206709 -264.17355919 124.54192924 C-264.40030236 122.34606345 -264.62931689 120.15043074 -264.86084938 117.95506477 C-269.18385933 76.92164021 -269.18385933 76.92164021 -258.18359375 62.4375 C-248.07582325 50.61431154 -235.73052962 45.02453943 -220.8125 41.4375 C-219.66152832 41.15447021 -218.51055664 40.87144043 -217.32470703 40.57983398 C-201.23377475 36.72778732 -184.97518642 33.59702499 -168.7421875 30.41015625 C-167.85698425 30.23551346 -166.97178101 30.06087067 -166.05975342 29.88093567 C-159.92556489 28.6875 -159.92556489 28.6875 -157.6875 28.6875 C-157.43871094 27.96820313 -157.18992187 27.24890625 -156.93359375 26.5078125 C-148.28871612 6.94166312 -125.78309863 -7.28792558 -106.6875 -15.3125 C-101.44317616 -17.32641895 -96.12091485 -18.89683178 -90.6875 -20.3125 C-89.75421875 -20.55871094 -88.8209375 -20.80492187 -87.859375 -21.05859375 C-57.52573641 -27.48897035 -24.1306824 -19.16763424 0 0 Z M-123.6875 21.6875 C-124.44933594 22.35394531 -125.21117187 23.02039063 -125.99609375 23.70703125 C-140.26921551 37.04015539 -150.83585561 58.0996791 -151.6875 77.6875 C-151.7390625 78.6878125 -151.790625 79.688125 -151.84375 80.71875 C-152.45762809 103.43223925 -144.71778695 124.60131428 -129.6875 141.6875 C-128.68783203 142.83025391 -128.68783203 142.83025391 -127.66796875 143.99609375 C-114.33484461 158.26921551 -93.2753209 168.83585561 -73.6875 169.6875 C-72.6871875 169.7390625 -71.686875 169.790625 -70.65625 169.84375 C-47.94276075 170.45762809 -26.77368572 162.71778695 -9.6875 147.6875 C-8.92566406 147.02105469 -8.16382813 146.35460937 -7.37890625 145.66796875 C6.89421551 132.33484461 17.46085561 111.2753209 18.3125 91.6875 C18.3640625 90.6871875 18.415625 89.686875 18.46875 88.65625 C19.10268344 65.20071267 10.83269419 44.21295821 -4.6875 26.6875 C-5.24050781 26.05070312 -5.79351562 25.41390625 -6.36328125 24.7578125 C-19.45189734 10.66237979 -40.50835631 0.52137581 -59.6875 -0.3125 C-60.6878125 -0.3640625 -61.688125 -0.415625 -62.71875 -0.46875 C-85.43223925 -1.08262809 -106.60131428 6.65721305 -123.6875 21.6875 Z M-175.87084961 54.54199219 C-176.73612778 54.72928894 -177.60140594 54.91658569 -178.49290466 55.10955811 C-179.43239456 55.31574768 -180.37188446 55.52193726 -181.33984375 55.734375 C-182.30974747 55.94684875 -183.27965118 56.15932251 -184.27894592 56.37823486 C-186.33964062 56.83098493 -188.4000527 57.28502293 -190.46020508 57.74023438 C-193.57943006 58.42746006 -196.70076274 59.1044585 -199.82226562 59.78125 C-201.82826537 60.22332184 -203.83412907 60.6660116 -205.83984375 61.109375 C-206.76111557 61.30746765 -207.68238739 61.5055603 -208.63157654 61.70965576 C-222.00936982 64.70221459 -232.6963737 68.4691157 -240.4609375 80.24609375 C-247.41838608 94.09451847 -243.09428917 112.62809868 -241.54785156 127.43676758 C-241.31727965 129.69852577 -241.0873371 131.96034819 -240.85797119 134.222229 C-240.23705649 140.3238369 -239.60632546 146.42439042 -238.97292805 152.52471375 C-238.44362419 157.62910154 -237.91860875 162.73392721 -237.39339042 167.83873671 C-236.22465889 179.19531289 -235.04887009 190.55113404 -233.86737183 201.9063876 C-233.79673483 202.5852753 -233.72609783 203.264163 -233.65332031 203.96362305 C-233.5825948 204.64334943 -233.51186929 205.32307582 -233.43900058 206.02339997 C-232.29143672 217.05605358 -231.15875025 228.0901774 -230.03278139 239.12505392 C-228.87318134 250.48788605 -227.70235033 261.8494996 -226.5206449 273.21005744 C-225.85869988 279.57550806 -225.20124823 285.94134265 -224.55512238 292.30842018 C-223.94759814 298.29104716 -223.32596204 304.2720431 -222.69356537 310.25209045 C-222.46436608 312.44206331 -222.24013458 314.63256286 -222.02133179 316.82359886 C-221.72102979 319.82274945 -221.40256138 322.81944965 -221.07965088 325.8162384 C-220.99791949 326.67568725 -220.91618809 327.5351361 -220.83197999 328.42062885 C-219.68107633 338.6685704 -216.0125017 346.47983242 -208.6875 353.6875 C-207.57375 354.80125 -207.57375 354.80125 -206.4375 355.9375 C-198.76722913 360.81858146 -190.85238097 362.28036831 -181.90306091 362.18870544 C-180.87574626 362.19423984 -179.8484316 362.19977424 -178.78998619 362.20547634 C-175.37853679 362.21899172 -171.96783062 362.20416291 -168.55639648 362.18920898 C-166.09812104 362.19299543 -163.63984774 362.19849815 -161.18157959 362.20558167 C-155.21656568 362.21806625 -149.25183863 362.21199873 -143.28685265 362.19690608 C-136.33060328 362.17998031 -129.37440594 362.18326446 -122.41814233 362.18700016 C-110.00145637 362.19286867 -97.58487206 362.17874635 -85.16821289 362.15405273 C-73.13757519 362.13012974 -61.10707323 362.12305179 -49.07641602 362.13354492 C-35.95368388 362.14497017 -22.83101441 362.14686477 -9.70828301 362.13244683 C-8.30739948 362.13092109 -6.90651594 362.12940074 -5.5056324 362.12788582 C-4.81649271 362.127128 -4.12735302 362.12637019 -3.41733031 362.12558941 C1.42420287 362.1208594 6.26570794 362.12268885 11.10724068 362.12695122 C17.6301846 362.13240997 24.15296865 362.12157408 30.67588806 362.09999657 C33.06633815 362.09444358 35.4568063 362.09394968 37.84725761 362.09894943 C41.1167261 362.10492894 44.38562708 362.09234553 47.65504456 362.07518005 C49.06503899 362.08419512 49.06503899 362.08419512 50.50351816 362.09339231 C61.79232525 361.98603315 69.76629785 358.73364504 78 351.12890625 C85.11306309 343.71353798 86.8533778 333.62252674 87.78540039 323.73803711 C87.95028599 322.17372011 87.95028599 322.17372011 88.11850262 320.57780075 C88.47909708 317.12471544 88.81961107 313.66995918 89.16015625 310.21484375 C89.41486653 307.73813703 89.67085931 305.26156193 89.92803955 302.78511047 C90.54578609 296.80664894 91.15076927 290.82702461 91.74980056 284.8466695 C92.44571963 277.90524495 93.15641531 270.96535908 93.86855352 264.02558255 C94.23070836 260.49617237 94.59233454 256.96670811 94.95378113 253.43722534 C95.0257891 252.73408026 95.09779708 252.03093518 95.17198712 251.30648267 C95.6854731 246.2888998 96.19582151 241.27100334 96.70478821 236.25296021 C98.49926017 218.56688684 100.33338421 200.88566797 102.21115303 183.20820808 C102.98552111 175.91380493 103.75528469 168.61891399 104.52569485 161.32409191 C105.13158472 155.59060202 105.73989356 149.85738995 106.35354614 144.12472534 C106.92665691 138.7679053 107.49167817 133.41028956 108.05080414 128.05199242 C108.25456721 126.11276446 108.46117287 124.17383244 108.67102814 122.23525429 C112.20585319 97.12726701 112.20585319 97.12726701 103.3125 74.4375 C95.21646156 66.10637195 83.87323386 63.42291971 72.875 61.0625 C71.56081006 60.7691544 70.24684724 60.47478959 68.93310547 60.17944336 C58.10813576 57.76832306 47.23107106 55.62777587 36.3125 53.6875 C36.44527344 54.48414063 36.57804687 55.28078125 36.71484375 56.1015625 C37.24739583 59.296875 37.77994792 62.4921875 38.3125 65.6875 C38.58320312 67.01007813 38.58320312 67.01007813 38.859375 68.359375 C42.7314002 96.79873247 36.04311656 125.44289135 19.15234375 148.65625 C2.86470576 169.10915696 -17.53803786 182.13484478 -42.6875 188.6875 C-44.08742188 189.05681641 -44.08742188 189.05681641 -45.515625 189.43359375 C-73.94800586 195.46092595 -103.66686234 188.27231848 -127.6875 172.6875 C-152.10055879 154.92378748 -167.58262557 129.58621752 -172.29492188 99.85498047 C-172.93502409 94.6903747 -173.02597532 89.57412258 -173 84.375 C-172.99871094 83.29138184 -172.99742187 82.20776367 -172.99609375 81.09130859 C-172.90662704 73.59064349 -172.13325093 66.65680239 -170.34375 59.3828125 C-169.56921642 56.6640347 -169.56921642 56.6640347 -169.6875 53.6875 C-171.88154865 53.6875 -173.72527026 54.07563157 -175.87084961 54.54199219 Z " fill="#ffff00" transform="translate(322.6875,75.3125)"/>
<path d="M0 0 C2.82424288 2.19022918 4.41508603 3.83017207 6 7 C6.1167127 8.90799685 6.1697053 10.82002249 6.19287109 12.73144531 C6.21696548 14.5340683 6.21696548 14.5340683 6.24154663 16.37310791 C6.28592269 21.87650398 6.32750845 27.3797683 6.35009766 32.88330078 C6.36342345 35.78759352 6.39124891 38.69118135 6.43212891 41.59521484 C6.48154013 45.10541535 6.50622899 48.61497775 6.51332474 52.12551117 C6.52327139 54.10752523 6.55749673 56.08936959 6.59213257 58.07110596 C6.56856495 68.11291083 6.56856495 68.11291083 3.59228516 71.80371094 C-0.05952015 74.89766842 -2.1476507 75.2886911 -6.96484375 75.21875 C-9.93774757 74.89920564 -11.70998159 73.88589752 -14 72 C-16.13082172 68.67953511 -16.2623896 65.94157362 -16.29052734 62.04150391 C-16.30328705 60.83990631 -16.31604675 59.63830872 -16.32919312 58.40029907 C-16.33141876 57.105466 -16.33364441 55.81063293 -16.3359375 54.4765625 C-16.34236841 53.12901672 -16.34909699 51.78147232 -16.35610962 50.43392944 C-16.36807264 47.61119349 -16.37179148 44.78857982 -16.37060547 41.96582031 C-16.37040238 38.35881394 -16.39769728 34.75259634 -16.43214989 31.14577675 C-16.45445074 28.36268554 -16.45844205 25.57978318 -16.45738602 22.79661179 C-16.4608765 20.82354648 -16.48252016 18.85054011 -16.50448608 16.87759399 C-16.44738801 5.66908404 -16.44738801 5.66908404 -12 1 C-8.28546768 -0.85726616 -4.04420575 -0.58501089 0 0 Z " fill="#ffff00" transform="translate(261,96)"/>
</svg>
